# xmcd
#
# Track frame offsets: 
#        150
#        29192
#        53305
#        87572
#        120396
#        161839
#        199650
#        234637
#        264999
#        312592
#
# Disc length: 4797 seconds
#
# Revision: 2
# Processed by: cddbd v1.5.2PL0 Copyright (c) Steve Scherf et al.
# Submitted via: ExactAudioCopy v0.99pb4
#
DISCID=8612bb0a
DTITLE=Alex Skolnick - Goodbye to romance
DYEAR=2003
DGENRE=Jazz
TTITLE0=Detroit Rock City
TTITLE1=Dream On
TTITLE2=No one Like You
TTITLE3=Goodbye To Romance
TTITLE4=Still Loving You
TTITLE5=Skol Blues
TTITLE6=Pinball Wizard
TTITLE7=Ofri
TTITLE8=War Pigs
TTITLE9=No One Like You (bonus track)
EXTD=YEAR: 2003
EXTT0=
EXTT1=
EXTT2=
EXTT3=
EXTT4=
EXTT5=
EXTT6=
EXTT7=
EXTT8=
EXTT9=
PLAYORDER=
